<svg width="191" height="216" viewBox="0 0 191 216" fill="none" xmlns="http://www.w3.org/2000/svg">
<path d="M96.0191 215.077L189.519 158.292C189.818 158.111 190 157.787 190 157.437L190 58.5627C190 58.2133 189.818 57.8893 189.519 57.7079L96.0191 0.922592C95.3527 0.517853 94.5 0.99762 94.5 1.77731L94.5 214.223C94.5 215.002 95.3527 215.482 96.0191 215.077Z" fill="#0F0F0F" stroke="#0F0F0F"/>
<path d="M94.9809 0.922592L1.48091 57.7079C1.18231 57.8893 1 58.2133 1 58.5626V157.437C1 157.787 1.18231 158.111 1.4809 158.292L94.9809 215.077C95.6473 215.482 96.5 215.002 96.5 214.223V1.77731C96.5 0.997613 95.6473 0.517856 94.9809 0.922592Z" fill="#0F0F0F" stroke="#0F0F0F"/>
<path d="M118.293 109.293L81.7071 72.7071C81.0771 72.0771 80 72.5233 80 73.4142V87.5858C80 87.851 80.1054 88.1054 80.2929 88.2929L101.293 109.293C101.683 109.683 101.683 110.317 101.293 110.707L80.2929 131.707C80.1054 131.895 80 132.149 80 132.414V146.586C80 147.477 81.0771 147.923 81.7071 147.293L118.293 110.707C118.683 110.317 118.683 109.683 118.293 109.293Z" fill="#F7F7F7" stroke="#F7F7F7"/>
</svg>
