<svg width="34" height="40" viewBox="0 0 34 40" fill="none" xmlns="http://www.w3.org/2000/svg">
<path d="M1 29V11L17 1L33 11V29L17 39L1 29Z" fill="#FFC834" stroke="#FFC834"/>
<path d="M19.7319 15.4191L17.8391 11.3181C17.4936 10.5695 16.4416 10.5371 16.0507 11.263L13.7832 15.4741C13.6088 15.798 13.2706 16 12.9027 16H8.27324C7.40313 16 6.94813 17.0343 7.53608 17.6757L11.1512 21.6195C11.37 21.8582 11.4597 22.1881 11.3918 22.5047L10.436 26.9656C10.2603 27.7855 11.111 28.4445 11.861 28.0695L16.5528 25.7236C16.8343 25.5828 17.1657 25.5828 17.4472 25.7236L21.9668 27.9834C22.745 28.3725 23.6145 27.6509 23.3755 26.8142L22.1537 22.538C22.0582 22.2037 22.1432 21.8438 22.3781 21.5875L25.9639 17.6757C26.5519 17.0343 26.0969 16 25.2268 16H20.6398C20.2498 16 19.8953 15.7732 19.7319 15.4191Z" fill="#F7F7F7" stroke="#F7F7F7"/>
</svg>
