<?xml version="1.0" standalone="no"?>
<!DOCTYPE svg PUBLIC "-//W3C//DTD SVG 20010904//EN"
 "http://www.w3.org/TR/2001/REC-SVG-20010904/DTD/svg10.dtd">
<svg version="1.0" xmlns="http://www.w3.org/2000/svg"
 width="3835.000000pt" height="3835.000000pt" viewBox="0 0 3835.000000 3835.000000"
 preserveAspectRatio="xMidYMid meet">
<metadata>
Created by potrace 1.14, written by Peter Selinger 2001-2017
</metadata>
<g transform="translate(0.000000,3835.000000) scale(0.100000,-0.100000)"
fill="#000000" stroke="none">
<path d="M19147 37216 c-8 -8 -3527 -2043 -7820 -4521 l-7807 -4508 0 -9012 0
-9012 7807 -4508 c4293 -2478 7812 -4513 7820 -4521 8 -8 18 -14 23 -14 4 0
3529 2033 7832 4518 l7823 4518 0 9019 0 9019 -7823 4518 c-4303 2485 -7828
4518 -7832 4518 -5 0 -15 -6 -23 -14z m33 -9346 c0 -5 5 -10 12 -10 14 0 172
-91 176 -102 2 -5 8 -6 13 -2 5 3 9 0 9 -7 0 -7 3 -9 7 -6 3 4 21 -4 38 -18
18 -13 35 -22 37 -19 3 2 11 -2 18 -11 7 -8 19 -15 26 -15 8 0 14 -5 14 -12 0
-6 3 -9 6 -5 6 6 107 -52 112 -65 2 -5 8 -6 13 -2 5 3 9 0 9 -5 0 -6 6 -11 13
-11 6 0 39 -16 72 -37 56 -34 194 -114 295 -171 25 -14 48 -30 52 -36 5 -6 8
-7 8 -1 0 7 3 7 8 0 7 -10 24 -20 130 -76 34 -18 62 -37 62 -41 0 -4 6 -8 14
-8 8 0 21 -6 28 -12 7 -7 37 -24 65 -38 29 -14 53 -28 53 -32 0 -5 7 -8 15 -8
8 0 15 -3 15 -7 0 -5 19 -17 43 -28 23 -11 44 -22 47 -25 3 -3 26 -17 53 -30
26 -14 47 -28 47 -32 0 -5 5 -8 11 -8 13 0 221 -120 230 -133 3 -5 9 -7 12 -5
2 1 23 -9 46 -24 22 -14 50 -29 61 -33 11 -3 20 -11 20 -16 0 -6 5 -7 10 -4 6
3 10 1 10 -4 0 -6 6 -11 14 -11 7 0 19 -7 26 -15 7 -8 16 -12 21 -9 5 3 9 1 9
-4 0 -6 10 -12 23 -16 12 -3 31 -12 42 -21 11 -8 65 -41 120 -72 55 -31 103
-60 106 -66 3 -5 10 -8 15 -8 5 1 54 -25 109 -58 55 -32 119 -68 143 -81 23
-13 42 -28 42 -32 0 -5 4 -7 8 -4 5 3 19 -4 30 -15 12 -11 22 -17 22 -13 0 3
12 -2 27 -11 15 -10 53 -32 86 -50 32 -17 67 -39 78 -48 10 -9 19 -15 19 -12
0 3 18 -6 40 -20 22 -14 71 -42 108 -61 37 -20 74 -42 82 -48 8 -6 25 -17 38
-23 12 -7 32 -19 45 -25 12 -7 24 -15 27 -18 3 -3 30 -18 60 -34 30 -16 57
-32 60 -35 3 -3 21 -14 40 -23 19 -10 42 -22 50 -27 8 -6 49 -29 90 -53 41
-23 78 -47 82 -53 4 -5 8 -6 8 -1 0 5 6 4 13 -2 15 -13 354 -209 427 -248 30
-16 58 -33 62 -39 4 -5 8 -6 8 -2 0 5 13 -1 29 -12 16 -12 34 -21 40 -21 6 0
11 -5 11 -11 0 -5 4 -8 9 -4 6 3 13 0 18 -7 4 -7 34 -26 66 -41 51 -25 115
-63 142 -85 6 -4 13 -9 18 -10 13 -3 66 -32 112 -61 l44 -28 -27 -14 c-15 -8
-29 -17 -32 -20 -3 -4 -25 -17 -50 -29 -25 -12 -57 -31 -71 -41 -14 -10 -29
-16 -33 -12 -3 3 -6 1 -6 -5 0 -7 -7 -12 -15 -12 -8 0 -15 -3 -15 -8 0 -4 -21
-18 -47 -31 -27 -14 -61 -33 -76 -44 -15 -10 -33 -20 -41 -21 -7 -1 -25 -12
-40 -24 -16 -12 -32 -19 -37 -16 -5 3 -9 1 -9 -3 0 -5 -26 -22 -57 -38 -32
-15 -82 -43 -111 -62 -29 -18 -55 -33 -57 -33 -3 0 -22 -11 -43 -24 -48 -30
-136 -80 -142 -81 -8 -1 -54 -27 -60 -34 -5 -6 -30 -21 -95 -55 -22 -12 -51
-29 -65 -38 -53 -32 -115 -66 -124 -66 -5 0 -12 -4 -15 -10 -8 -12 -338 -202
-351 -202 -6 0 -10 -3 -10 -7 0 -5 -26 -21 -58 -38 -31 -16 -59 -33 -60 -38
-2 -4 -8 -5 -13 -1 -5 3 -9 1 -9 -4 0 -5 -15 -15 -32 -23 -18 -7 -35 -16 -38
-20 -3 -4 -32 -21 -65 -39 -33 -18 -66 -37 -72 -42 -7 -6 -13 -7 -13 -4 0 4
-10 -2 -22 -13 -11 -11 -25 -18 -30 -15 -4 3 -8 1 -8 -4 0 -4 -19 -19 -42 -32
-24 -12 -79 -43 -122 -69 -44 -25 -82 -44 -84 -43 -3 2 -8 -1 -11 -6 -6 -9
-37 -29 -111 -68 -19 -11 -37 -22 -40 -25 -8 -10 -94 -53 -102 -51 -5 1 -8 -3
-8 -9 0 -5 -15 -17 -32 -25 -44 -20 -72 -37 -93 -54 -10 -8 -21 -15 -24 -14
-3 1 -23 -10 -43 -22 -21 -13 -42 -24 -47 -24 -5 0 -14 -7 -21 -15 -6 -8 -15
-14 -18 -12 -4 1 -18 -6 -32 -14 -69 -44 -131 -79 -139 -79 -5 0 -11 -4 -13
-9 -1 -5 -10 -11 -18 -13 -8 -2 -17 -5 -20 -8 -15 -15 -96 -63 -107 -63 -7 0
-13 -3 -13 -6 0 -3 -21 -17 -47 -31 -27 -13 -50 -27 -53 -30 -13 -14 -61 -40
-75 -40 -8 0 -15 -4 -15 -9 0 -5 -12 -14 -27 -20 -16 -6 -53 -27 -83 -46 -30
-19 -61 -34 -67 -35 -7 0 -13 -5 -13 -11 0 -5 -4 -7 -10 -4 -5 3 -10 1 -10 -5
0 -6 -4 -9 -9 -6 -5 4 -11 2 -13 -2 -3 -7 -154 -102 -162 -102 -2 0 -33 -17
-67 -38 -63 -38 -121 -71 -189 -108 -19 -11 -40 -25 -48 -32 -7 -7 -18 -10
-23 -7 -5 4 -9 2 -9 -4 0 -5 -19 -19 -42 -31 -67 -34 -101 -54 -116 -67 -7 -7
-18 -13 -24 -13 -5 0 -23 -9 -39 -21 -16 -11 -29 -18 -29 -14 0 3 -10 -3 -22
-15 -12 -11 -25 -20 -30 -20 -16 0 -23 -3 -33 -15 -5 -7 -44 -30 -86 -53 l-76
-41 -54 36 c-30 19 -55 35 -56 34 -8 -3 -73 34 -73 41 0 5 -4 7 -9 3 -6 -3
-14 2 -19 11 -5 9 -13 16 -18 16 -18 1 -54 21 -54 30 0 5 -4 7 -8 4 -5 -3 -20
3 -33 12 -36 25 -82 52 -101 58 -10 4 -18 11 -18 16 0 5 -5 6 -10 3 -6 -3 -13
1 -16 9 -3 9 -10 13 -15 10 -5 -3 -9 0 -9 5 0 6 -4 11 -9 11 -13 0 -175 92
-183 105 -5 6 -8 6 -8 0 0 -5 -7 -1 -16 10 -8 11 -18 19 -22 19 -13 -2 -72 30
-72 38 0 5 -4 7 -9 3 -5 -3 -12 -1 -15 4 -3 5 -29 21 -58 36 -29 15 -56 33
-60 39 -4 6 -8 7 -8 2 0 -5 -10 0 -22 12 -13 11 -26 21 -31 21 -10 1 -71 32
-77 40 -3 3 -23 15 -45 27 -22 11 -80 45 -130 74 -49 29 -110 64 -135 78 -25
13 -99 57 -165 96 -132 78 -149 87 -230 131 -30 16 -55 33 -55 37 0 4 -9 8
-20 8 -11 0 -20 4 -20 9 0 5 -8 11 -17 14 -24 8 -101 52 -121 70 -9 8 -26 17
-37 21 -29 10 -209 118 -213 128 -2 4 -8 6 -13 2 -5 -3 -9 0 -9 5 0 6 -9 11
-20 11 -11 0 -20 5 -20 10 0 6 -6 10 -14 10 -8 0 -16 3 -18 8 -1 4 -24 18 -50
31 -27 13 -48 28 -48 33 0 5 -4 7 -9 4 -5 -3 -14 0 -20 7 -5 7 -33 24 -61 37
-27 13 -50 27 -50 32 0 5 -4 7 -9 4 -4 -3 -19 3 -31 14 -13 11 -27 20 -32 20
-5 0 -34 16 -65 36 -31 19 -65 40 -77 45 -12 5 -37 19 -56 31 -19 11 -55 32
-80 46 -25 14 -69 40 -98 59 -29 18 -57 33 -62 33 -6 0 -10 4 -10 10 0 5 -3 9
-7 8 -12 -3 -83 35 -83 44 0 4 -5 8 -10 8 -14 0 -174 92 -178 102 -2 4 -8 8
-13 8 -8 0 -43 19 -155 85 -18 11 -57 33 -86 49 -29 16 -65 37 -80 47 -14 11
-29 19 -32 19 -3 0 -46 25 -97 55 -50 31 -132 77 -183 102 -50 25 -94 51 -98
57 -4 6 -11 11 -15 12 -17 1 -63 28 -63 36 0 5 -4 7 -9 3 -5 -3 -15 1 -23 8
-7 7 -34 23 -60 37 -27 14 -48 29 -48 33 0 5 -4 6 -8 3 -5 -3 -18 2 -29 12
-19 17 -95 60 -160 91 -18 9 -32 19 -33 23 0 7 81 56 94 56 5 0 12 4 15 9 7
11 436 258 466 269 11 4 43 22 72 40 28 18 54 30 57 27 3 -4 6 -2 6 3 0 5 26
23 58 39 31 17 59 33 62 36 6 8 67 39 77 40 5 0 17 8 28 18 11 10 56 38 100
63 44 25 108 61 142 81 34 19 64 33 67 29 3 -3 6 0 6 6 0 7 17 20 38 30 20 9
39 20 42 23 5 7 72 43 80 44 3 0 19 10 36 22 17 12 34 20 38 16 3 -3 6 -2 6 3
0 6 22 21 50 35 27 13 50 27 50 32 0 4 4 7 10 7 5 0 33 14 62 31 29 18 69 41
88 52 64 36 175 100 200 116 14 8 28 14 33 13 4 -1 7 3 7 9 0 5 4 8 9 5 5 -4
11 -3 13 2 5 13 106 71 112 65 3 -4 6 -2 6 4 0 10 49 38 63 35 4 -1 7 2 7 6 0
4 26 21 58 37 31 17 59 32 62 35 4 5 274 161 335 194 11 6 27 16 35 22 8 6 40
24 70 40 30 16 57 32 60 35 3 3 37 23 75 44 39 21 82 47 98 57 15 11 27 16 27
13 0 -4 7 1 16 9 8 9 21 16 29 16 7 0 15 4 17 8 2 5 35 26 73 47 39 21 79 43
90 49 11 6 22 14 25 17 5 7 91 52 100 52 3 1 14 9 24 19 11 10 23 18 27 18 4
0 37 18 73 40 36 22 70 40 76 40 5 0 10 5 10 10 0 6 4 10 10 10 5 0 39 18 75
40 36 22 65 37 65 33 0 -4 10 3 23 15 13 12 27 19 30 15 4 -3 7 -1 7 5 0 6 10
14 23 18 12 3 30 13 40 22 9 8 17 11 17 6 0 -5 4 -4 8 2 4 6 50 34 102 64 52
29 131 76 175 103 44 28 86 50 93 50 6 0 12 4 12 8 0 4 9 11 21 14 12 4 30 14
40 24 11 9 23 16 27 16 6 0 58 30 197 111 42 25 75 31 75 14z m-9930 -1196 c7
-7 16 -12 20 -9 4 3 13 -2 20 -10 7 -8 19 -15 26 -15 8 0 14 -4 14 -8 0 -4 16
-14 35 -21 19 -7 35 -16 35 -21 0 -4 11 -11 25 -14 14 -4 25 -11 25 -17 0 -6
4 -8 8 -5 5 3 19 -4 30 -15 12 -11 22 -18 22 -15 0 4 100 -54 210 -121 25 -15
49 -27 53 -27 4 -1 11 -5 15 -11 4 -5 12 -11 17 -12 12 -2 157 -83 165 -92 3
-3 21 -14 40 -24 71 -36 95 -50 100 -57 3 -3 12 -9 20 -13 8 -3 42 -22 75 -42
33 -20 68 -38 78 -42 9 -3 17 -9 17 -14 0 -5 5 -9 11 -9 6 0 81 -41 167 -91
224 -130 222 -129 275 -156 26 -13 47 -28 47 -34 0 -5 3 -8 8 -7 4 2 25 -8 47
-21 22 -13 41 -23 42 -22 2 0 27 -15 57 -34 30 -19 60 -35 66 -35 5 0 10 -4
10 -10 0 -5 4 -10 9 -10 12 0 205 -113 209 -122 2 -5 8 -6 12 -3 5 3 18 -3 29
-14 11 -11 22 -17 25 -13 3 3 6 0 6 -7 0 -7 5 -9 10 -6 6 3 10 1 10 -4 0 -6 7
-11 15 -11 8 0 15 -5 15 -11 0 -5 5 -7 10 -4 6 3 10 1 10 -5 0 -6 4 -9 9 -6 5
4 11 3 13 -1 1 -5 19 -16 38 -25 50 -25 94 -52 98 -60 2 -5 10 -8 18 -8 8 0
14 -5 14 -12 0 -6 3 -9 6 -5 3 3 46 -19 95 -49 49 -30 94 -54 99 -54 6 0 10
-4 10 -10 0 -5 6 -10 13 -10 7 0 34 -13 59 -29 25 -16 67 -41 94 -56 133 -73
229 -131 232 -137 2 -5 8 -8 14 -8 5 0 37 -16 71 -36 34 -20 87 -50 117 -67
30 -16 62 -35 70 -41 8 -6 24 -16 35 -22 11 -6 61 -34 111 -63 l91 -52 0
-2749 c0 -1513 -3 -2750 -7 -2750 -4 0 -40 19 -79 43 -40 23 -101 58 -136 77
-35 19 -70 41 -77 48 -6 6 -18 12 -25 12 -7 0 -13 5 -13 11 0 5 -4 7 -10 4 -5
-3 -10 -2 -10 2 0 5 -12 14 -27 21 -38 17 -81 41 -128 71 -22 14 -44 25 -48
26 -4 0 -12 7 -17 15 -5 8 -10 11 -10 6 0 -4 -16 4 -36 19 -19 15 -41 28 -47
29 -7 1 -24 9 -39 19 -64 39 -76 46 -185 108 -90 51 -128 73 -133 79 -3 3 -20
12 -37 19 -18 8 -33 18 -33 23 0 5 -4 7 -8 4 -5 -3 -18 2 -28 12 -11 9 -24 18
-29 19 -6 1 -37 17 -69 37 -33 20 -68 38 -78 42 -10 3 -18 9 -18 13 0 5 -15
14 -32 22 -18 7 -35 15 -38 18 -6 7 -37 25 -110 64 -30 16 -67 38 -82 48 -14
11 -30 19 -35 19 -5 0 -18 8 -29 18 -10 10 -23 19 -29 21 -9 2 -122 64 -170
94 -11 7 -23 16 -26 20 -3 5 -9 8 -13 8 -7 -2 -69 29 -76 38 -3 3 -21 14 -40
25 -59 31 -123 68 -160 91 -19 12 -57 34 -85 50 -102 56 -210 119 -215 124 -3
4 -30 19 -60 35 -30 16 -57 32 -60 35 -3 3 -23 15 -45 26 -22 11 -43 24 -47
30 -4 5 -8 6 -8 1 0 -5 -8 -2 -17 7 -21 18 -139 85 -165 94 -10 3 -18 9 -18
14 0 5 -7 9 -15 9 -8 0 -15 5 -15 11 0 5 -4 8 -9 4 -5 -3 -15 1 -23 8 -7 7
-60 39 -118 72 -58 32 -108 64 -112 70 -5 6 -8 6 -8 0 0 -7 -3 -7 -8 0 -8 11
-49 35 -164 96 -43 23 -78 45 -78 51 0 5 -4 7 -9 4 -5 -3 -14 1 -21 9 -7 8
-18 15 -26 15 -7 0 -17 8 -23 18 -5 9 -13 16 -18 15 -4 -1 -24 8 -43 19 -19
12 -48 29 -65 38 -16 9 -66 37 -110 64 -44 26 -87 51 -95 56 -8 5 -87 50 -175
101 -88 51 -178 102 -200 113 -22 11 -42 22 -45 26 -3 3 -30 18 -60 34 -30 16
-62 34 -70 41 -8 7 -25 16 -37 19 -13 4 -23 12 -23 17 0 6 -4 8 -8 5 -5 -3
-18 4 -30 14 -12 11 -24 20 -28 20 -13 0 -183 102 -197 118 -8 9 -45 76 -82
147 -37 72 -72 136 -78 143 -5 6 -6 12 -2 12 5 0 2 8 -6 18 -8 9 -19 26 -25
37 -91 168 -124 235 -117 235 4 0 3 4 -3 8 -13 8 -53 82 -239 437 -32 61 -62
116 -68 123 -5 6 -6 12 -1 12 5 0 4 4 -2 8 -6 4 -20 25 -31 47 -11 22 -35 69
-54 105 -18 36 -32 68 -31 73 1 4 -3 7 -8 7 -6 0 -10 5 -10 11 0 6 -9 24 -21
40 -11 16 -17 29 -12 29 4 0 3 4 -2 8 -6 4 -25 34 -42 67 -27 54 -65 124 -161
307 -17 31 -28 59 -25 62 4 3 2 6 -4 6 -6 0 -16 12 -23 28 -6 15 -38 77 -71
137 -57 108 -81 152 -170 325 -24 46 -50 91 -57 98 -7 8 -10 17 -7 22 3 5 1
10 -3 12 -4 1 -32 50 -61 108 -30 58 -61 116 -71 130 -9 14 -23 41 -30 60 -8
19 -16 37 -19 40 -8 7 -29 44 -74 130 -21 41 -43 80 -48 86 -5 6 -6 14 -2 17
3 4 0 7 -7 7 -7 0 -11 3 -7 6 3 4 0 13 -8 21 -8 8 -15 21 -15 28 0 14 98 77
141 90 13 4 31 13 39 20 8 7 47 28 85 46 39 19 73 39 77 44 5 7 8 7 8 0 0 -6
3 -5 8 1 4 6 77 48 162 92 85 44 196 103 246 130 50 26 126 66 168 88 42 21
84 44 94 49 38 24 142 75 148 74 4 0 10 3 13 8 3 5 20 16 36 24 17 9 136 71
265 140 129 68 238 123 243 121 4 -1 7 3 7 9 0 5 5 7 10 4 6 -3 10 -3 10 2 0
4 28 22 63 38 34 17 68 36 75 43 7 6 17 12 22 12 5 0 50 22 99 49 50 27 91 46
91 43 0 -4 4 -2 8 3 9 12 28 23 157 91 55 28 121 64 148 79 26 15 47 23 47 18
0 -4 4 -3 8 3 7 10 159 94 337 185 44 22 86 46 93 53 17 17 49 17 62 0z
m19880 -4 c14 -10 68 -39 120 -66 52 -26 97 -51 98 -56 2 -4 12 -8 22 -8 10 0
20 -3 22 -7 2 -5 64 -39 138 -77 74 -38 137 -73 138 -78 2 -4 8 -6 13 -2 5 3
9 2 9 -3 0 -4 15 -14 33 -22 17 -8 108 -54 200 -103 93 -49 195 -102 227 -119
33 -16 62 -34 65 -40 4 -5 10 -7 15 -4 5 3 14 -1 22 -8 7 -7 33 -21 57 -32 24
-11 49 -24 55 -30 6 -5 39 -23 74 -39 34 -16 62 -34 62 -40 0 -5 2 -7 5 -4 3
3 60 -23 127 -58 66 -35 125 -64 129 -64 5 0 9 -5 9 -10 0 -6 3 -9 8 -8 12 3
62 -25 62 -34 0 -5 5 -6 10 -3 6 3 10 1 10 -6 0 -7 2 -10 6 -7 3 3 46 -16 95
-43 49 -27 151 -81 227 -120 176 -92 225 -119 236 -130 6 -5 18 -9 28 -9 10 0
18 -3 18 -8 0 -4 15 -13 33 -21 17 -8 106 -54 196 -103 90 -48 167 -88 171
-88 4 0 13 -7 20 -15 7 -8 16 -13 20 -10 5 3 16 -2 24 -11 9 -8 16 -12 16 -7
0 4 4 4 8 -2 4 -5 24 -18 44 -27 l37 -17 -33 -63 c-19 -35 -53 -101 -77 -148
-24 -47 -48 -88 -54 -92 -5 -4 -7 -8 -3 -8 4 0 -8 -27 -27 -59 -18 -33 -36
-69 -40 -80 -3 -12 -11 -21 -17 -21 -6 0 -9 -3 -5 -6 3 -3 -5 -23 -18 -43 -12
-21 -42 -75 -65 -122 -23 -46 -45 -86 -49 -89 -3 -3 -24 -41 -45 -85 -21 -44
-41 -82 -45 -85 -5 -5 -43 -78 -46 -90 -1 -6 -54 -107 -70 -132 -17 -29 -128
-241 -144 -275 -8 -18 -19 -33 -24 -33 -4 0 -6 -4 -2 -9 3 -5 -2 -17 -11 -25
-8 -9 -12 -16 -7 -16 4 0 4 -4 -2 -8 -5 -4 -30 -47 -55 -97 -24 -49 -48 -93
-53 -96 -5 -3 -9 -10 -9 -15 -1 -19 -22 -54 -31 -54 -6 0 -8 -3 -4 -6 6 -6
-71 -158 -105 -206 -11 -16 -17 -28 -14 -28 8 0 -45 -93 -56 -101 -6 -3 -9 -8
-8 -10 3 -7 -24 -64 -35 -71 -5 -4 -6 -8 -2 -8 9 0 -43 -93 -55 -98 -5 -2 -6
-8 -2 -13 3 -5 0 -9 -6 -9 -6 0 -9 -4 -5 -9 3 -5 -1 -15 -8 -23 -7 -7 -14 -16
-15 -21 -2 -10 -47 -99 -82 -162 -15 -27 -40 -75 -56 -105 -16 -30 -33 -58
-39 -62 -5 -4 -7 -8 -4 -8 4 0 -15 -41 -42 -92 -27 -51 -49 -96 -49 -100 0 -4
-4 -8 -10 -8 -5 0 -10 -6 -10 -14 0 -8 -7 -22 -16 -30 -8 -9 -13 -16 -10 -16
6 0 -43 -99 -54 -110 -3 -3 -20 -37 -39 -77 -29 -61 -73 -113 -97 -113 -3 0
-19 -9 -35 -21 -16 -11 -29 -17 -29 -12 0 4 -4 3 -8 -2 -8 -13 -162 -103 -177
-105 -5 -1 -17 -7 -25 -14 -8 -7 -73 -46 -145 -86 -71 -40 -155 -88 -186 -107
-31 -18 -62 -33 -68 -33 -6 0 -11 -4 -11 -8 0 -5 -21 -19 -46 -33 -25 -13 -53
-29 -62 -34 -66 -40 -186 -105 -193 -105 -5 0 -9 -3 -9 -7 0 -5 -30 -24 -67
-43 -37 -19 -76 -43 -87 -52 -11 -10 -24 -18 -30 -18 -5 0 -17 -6 -25 -14 -9
-7 -36 -25 -61 -38 -25 -14 -68 -39 -96 -55 -59 -35 -125 -73 -174 -99 -19
-11 -37 -22 -40 -25 -3 -3 -36 -23 -75 -44 -38 -20 -74 -40 -80 -44 -5 -3 -12
-6 -15 -6 -3 0 -12 -6 -20 -13 -19 -16 -170 -102 -170 -96 0 3 -10 -4 -22 -16
-12 -11 -26 -20 -31 -20 -5 0 -22 -9 -38 -21 -16 -11 -29 -17 -29 -12 0 4 -4
3 -8 -3 -4 -6 -53 -37 -110 -70 -57 -32 -125 -72 -150 -87 -26 -15 -55 -31
-64 -34 -10 -3 -18 -10 -18 -15 0 -5 -4 -6 -10 -3 -5 3 -10 1 -10 -4 0 -6 -5
-11 -11 -11 -6 0 -24 -9 -40 -21 -16 -11 -29 -18 -29 -14 0 3 -16 -6 -35 -21
-19 -14 -35 -22 -35 -18 0 5 -4 4 -8 -2 -8 -11 -49 -37 -132 -82 -30 -16 -84
-47 -120 -69 -36 -22 -92 -54 -125 -72 -33 -18 -66 -38 -73 -44 -7 -6 -32 -20
-55 -31 -23 -12 -60 -33 -81 -46 -22 -14 -68 -41 -102 -60 -34 -19 -90 -52
-125 -72 -35 -20 -68 -37 -73 -37 -5 1 -12 -3 -15 -8 -8 -12 -315 -189 -320
-185 -2 2 -7 -1 -10 -6 -8 -14 -178 -111 -184 -106 -2 3 -10 -2 -17 -11 -7 -8
-19 -15 -26 -15 -8 0 -14 -5 -14 -11 0 -5 -4 -7 -10 -4 -5 3 -10 2 -10 -2 0
-5 -13 -17 -30 -26 -16 -10 -30 -15 -30 -12 0 3 -10 -3 -22 -14 -11 -11 -25
-18 -30 -15 -4 3 -8 2 -8 -3 0 -4 -26 -21 -58 -38 -31 -16 -59 -32 -62 -35 -9
-10 -252 -150 -260 -150 -5 0 -10 -4 -12 -9 -1 -5 -10 -11 -18 -13 -8 -2 -17
-6 -20 -9 -3 -4 -14 -9 -26 -13 l-20 -6 0 2749 c1 1512 3 2751 6 2754 10 9 70
37 76 36 4 0 10 3 13 9 3 5 26 20 51 34 25 14 74 43 110 63 36 21 94 54 130
75 36 20 85 49 110 65 25 15 51 28 57 28 7 0 13 4 13 9 0 4 7 8 15 8 8 0 15 3
15 8 0 7 8 12 76 47 21 11 41 22 44 25 5 5 62 37 97 54 13 6 23 14 23 19 0 4
4 7 9 7 11 0 192 102 233 131 15 10 32 19 37 19 6 0 29 13 53 28 24 16 63 40
88 53 25 13 48 29 52 34 5 7 8 7 8 0 0 -6 3 -6 8 1 4 6 27 21 52 34 25 14 52
30 60 36 15 11 100 59 175 98 22 12 42 24 45 27 3 3 28 19 55 34 28 16 68 39
90 52 22 12 47 26 55 29 8 4 29 17 46 30 17 13 34 20 38 17 3 -4 6 -1 6 6 0 7
4 10 9 7 5 -4 11 -3 13 2 4 10 164 102 177 102 5 0 11 4 13 8 4 9 146 92 158
92 4 0 13 7 20 15 7 9 15 13 18 10 3 -3 12 1 21 9 15 14 157 96 266 156 28 15
84 48 126 73 42 26 82 47 88 47 6 0 11 5 11 10 0 6 6 10 14 10 7 0 25 9 40 21
14 11 26 18 26 14 0 -3 16 6 35 21 19 14 35 23 35 19 0 -3 7 1 16 9 8 9 22 16
30 16 8 0 14 3 14 8 0 4 10 12 23 18 33 16 341 194 350 203 13 13 41 9 67 -9z
m-15215 -2683 c11 -6 23 -16 27 -22 4 -5 8 -7 8 -2 0 6 46 -19 60 -33 3 -3 35
-21 72 -40 36 -19 64 -38 62 -42 -3 -5 -2 -7 3 -6 12 4 73 -25 73 -34 0 -5 5
-8 10 -8 8 0 278 -153 435 -247 22 -13 48 -26 58 -30 9 -3 17 -10 17 -15 0 -5
4 -7 9 -4 5 3 14 -1 21 -9 7 -8 19 -15 26 -15 8 0 14 -5 14 -12 0 -6 3 -8 7
-5 3 4 13 1 22 -7 9 -8 40 -26 69 -41 28 -15 52 -31 52 -36 0 -5 3 -8 8 -7 11
3 186 -94 202 -112 3 -4 20 -12 38 -19 17 -8 32 -18 32 -24 0 -6 3 -7 6 -4 4
4 19 -2 33 -12 14 -9 62 -37 106 -61 44 -23 84 -49 88 -57 5 -7 12 -11 18 -8
5 4 9 1 9 -5 0 -6 4 -9 9 -5 5 3 16 -2 24 -10 9 -8 18 -15 21 -15 3 0 34 -17
68 -38 35 -21 74 -43 88 -50 14 -6 34 -18 45 -24 57 -37 126 -78 130 -78 9 0
131 -74 137 -84 4 -6 8 -8 8 -3 0 6 46 -19 60 -33 3 -3 35 -21 72 -40 37 -19
68 -38 68 -41 0 -4 11 -10 25 -13 14 -4 25 -11 25 -17 0 -6 5 -7 10 -4 6 3 10
1 10 -5 0 -6 4 -9 9 -6 5 3 14 -1 21 -9 7 -8 16 -15 20 -15 13 0 234 -132 242
-144 4 -6 8 -8 8 -4 0 4 46 -20 103 -54 56 -33 120 -69 142 -80 22 -12 42 -24
45 -27 3 -4 27 -18 54 -32 79 -39 86 -43 86 -52 0 -4 5 -5 10 -2 6 3 10 2 10
-3 0 -5 18 -17 40 -27 22 -10 40 -23 40 -28 0 -6 3 -8 6 -4 3 3 27 -7 52 -23
26 -16 85 -50 132 -76 47 -26 87 -50 90 -54 3 -3 21 -14 40 -23 71 -36 145
-79 148 -88 2 -5 8 -7 13 -3 5 3 9 0 9 -5 0 -6 5 -11 10 -11 13 0 174 -92 178
-102 2 -5 10 -8 18 -8 8 0 14 -4 14 -10 0 -5 3 -9 8 -8 11 3 82 -35 82 -44 0
-4 5 -8 10 -8 6 0 49 -23 98 -51 121 -70 126 -73 133 -82 3 -5 10 -9 15 -9 9
0 52 -23 173 -95 40 -23 77 -43 82 -43 5 0 9 -4 9 -10 0 -5 6 -10 14 -10 8 0
21 -7 30 -15 8 -9 19 -16 23 -17 20 -2 53 -22 53 -31 0 -6 3 -7 7 -4 3 4 21
-5 40 -19 18 -14 33 -22 33 -18 0 3 15 -5 34 -19 18 -15 36 -23 40 -20 3 4 6
1 6 -5 0 -7 4 -12 9 -12 8 0 201 -109 211 -120 3 -3 12 -6 20 -8 8 -2 17 -8
18 -13 2 -5 8 -9 13 -9 4 0 42 -20 83 -44 l74 -44 36 24 c20 14 37 24 38 22 2
-1 15 6 31 15 63 39 72 44 81 45 5 0 12 4 15 9 3 4 15 13 26 19 11 6 81 46
155 89 74 43 149 86 165 95 17 10 46 26 65 36 19 11 40 25 48 31 7 7 24 16 38
19 13 3 24 9 24 13 0 9 51 35 63 33 4 -1 7 2 7 7 0 5 9 13 20 16 11 4 44 22
73 41 28 19 56 34 62 34 6 0 17 6 24 13 6 6 15 12 19 13 4 0 31 16 61 35 30
19 55 32 57 29 1 -3 10 2 20 11 11 9 39 27 64 40 25 13 47 26 50 29 3 3 23 14
45 25 22 11 42 23 45 26 7 10 112 69 133 76 9 3 17 10 17 15 0 5 5 6 10 3 6
-3 10 -1 10 5 0 6 4 9 9 6 5 -4 11 -3 13 2 3 8 104 72 113 72 3 0 34 18 70 40
36 22 65 36 65 32 0 -4 4 -2 8 4 7 10 120 77 222 132 25 13 57 31 72 40 60 38
121 72 129 72 5 0 9 4 9 8 0 4 20 16 45 26 25 11 45 23 45 28 0 4 6 8 14 8 8
0 16 4 18 8 3 8 108 69 188 109 19 10 37 20 40 23 6 7 116 71 155 90 17 8 32
17 35 20 6 6 41 26 85 49 16 9 32 19 35 22 3 3 30 19 60 36 118 64 156 87 181
104 14 10 29 16 33 12 3 -3 6 -2 6 3 0 5 21 21 47 34 26 14 54 31 61 38 7 6
18 12 24 12 5 0 23 9 39 21 16 11 29 17 29 12 0 -4 4 -3 8 3 4 6 50 35 102 64
52 29 107 62 123 72 15 11 27 16 27 11 0 -4 4 -3 8 3 4 6 33 26 64 44 32 17
61 36 64 41 3 5 10 7 15 4 5 -4 9 -1 9 4 0 6 5 11 10 11 6 0 28 11 50 25 22
14 40 22 40 18 0 -5 5 0 11 10 6 9 14 15 20 12 5 -4 9 -1 9 5 0 6 4 9 9 6 5
-4 11 -2 13 2 2 8 70 48 186 112 15 8 63 36 107 62 44 25 94 55 112 65 18 10
73 42 123 71 50 28 95 52 100 52 6 0 10 3 10 8 0 4 28 22 63 40 34 18 87 49
117 67 30 19 61 34 68 35 6 0 12 4 12 8 0 9 71 47 83 44 4 -1 7 2 7 7 0 5 8
11 18 15 9 3 31 14 47 25 17 10 58 35 93 55 34 20 90 52 125 72 34 21 81 48
105 61 l42 25 0 -2746 c0 -1510 1 -2749 1 -2753 1 -8 -83 -59 -113 -69 -10 -4
-18 -10 -18 -15 0 -5 -3 -8 -7 -7 -5 1 -26 -9 -48 -23 -22 -14 -52 -32 -66
-40 -15 -8 -51 -27 -80 -44 -30 -16 -57 -28 -61 -27 -5 1 -8 -2 -8 -7 0 -5
-12 -16 -27 -24 -53 -28 -168 -93 -195 -111 -16 -10 -28 -14 -28 -10 0 5 -5 1
-11 -8 -5 -10 -15 -18 -21 -18 -9 0 -105 -55 -208 -119 -14 -8 -27 -16 -30
-16 -3 0 -24 -13 -47 -28 -24 -15 -47 -27 -52 -27 -5 0 -14 -7 -21 -15 -7 -8
-16 -12 -21 -9 -5 3 -9 0 -9 -5 0 -6 -4 -11 -9 -11 -5 0 -38 -17 -72 -38 -35
-21 -89 -52 -119 -69 -92 -51 -134 -76 -152 -91 -10 -8 -18 -11 -18 -7 0 4 -8
1 -17 -7 -25 -21 -180 -108 -193 -108 -5 0 -10 -3 -10 -7 0 -5 -26 -21 -58
-38 -31 -16 -59 -33 -62 -36 -3 -3 -12 -8 -20 -12 -8 -4 -33 -18 -55 -32 -22
-14 -47 -28 -55 -32 -8 -3 -27 -15 -42 -25 -16 -11 -28 -16 -28 -13 0 4 -7 -1
-16 -9 -8 -9 -22 -16 -30 -16 -8 0 -14 -3 -14 -8 0 -4 -21 -18 -47 -31 -27
-14 -61 -33 -76 -44 -15 -10 -35 -20 -43 -21 -9 -1 -19 -7 -22 -12 -4 -6 -32
-24 -62 -40 -30 -16 -60 -35 -68 -41 -7 -7 -18 -13 -23 -13 -6 0 -30 -13 -53
-30 -24 -16 -46 -26 -50 -23 -3 4 -6 1 -6 -5 0 -7 -5 -12 -10 -12 -6 0 -39
-17 -73 -39 -34 -21 -87 -52 -117 -68 -75 -41 -104 -57 -110 -63 -3 -3 -30
-18 -60 -34 -30 -16 -62 -35 -71 -42 -9 -8 -19 -11 -22 -7 -4 3 -7 1 -7 -5 0
-7 -5 -12 -11 -12 -6 0 -24 -9 -40 -21 -16 -11 -29 -17 -29 -12 0 4 -5 1 -10
-7 -5 -8 -13 -15 -17 -15 -4 0 -19 -8 -33 -16 -65 -41 -253 -151 -311 -180
-35 -19 -66 -36 -69 -39 -13 -14 -60 -40 -60 -33 0 5 -4 3 -8 -2 -7 -10 -129
-85 -138 -85 -3 0 -29 -15 -59 -34 -29 -19 -56 -32 -59 -29 -3 4 -6 1 -6 -5 0
-7 -5 -12 -12 -12 -6 0 -19 -6 -27 -14 -9 -8 -40 -27 -69 -42 -78 -43 -88 -49
-104 -62 -8 -6 -18 -9 -21 -5 -4 3 -7 2 -7 -4 0 -9 -50 -37 -59 -33 -2 1 -7
-2 -10 -7 -3 -5 -49 -33 -101 -63 -52 -29 -124 -71 -159 -93 -35 -21 -70 -40
-77 -41 -7 -1 -21 -9 -31 -18 -20 -18 -93 -56 -107 -56 -5 0 -13 -7 -18 -16
-5 -9 -13 -14 -19 -11 -5 4 -9 1 -9 -4 0 -6 -4 -11 -10 -11 -5 0 -34 -16 -64
-35 -30 -19 -59 -35 -64 -35 -5 0 -15 -7 -22 -15 -7 -8 -16 -12 -21 -9 -5 3
-9 0 -9 -6 0 -6 -4 -9 -9 -6 -5 4 -11 3 -13 -2 -3 -8 -104 -72 -114 -72 -3 0
-29 -16 -59 -35 -30 -19 -55 -33 -55 -30 0 2 -16 -7 -36 -20 -20 -14 -43 -25
-50 -25 -7 0 -14 -3 -16 -8 -4 -10 -149 -96 -166 -98 -11 -2 -100 42 -112 55
-3 3 -31 20 -62 36 -32 17 -58 34 -58 38 0 5 -4 5 -10 2 -5 -3 -10 -1 -10 6 0
7 -2 10 -5 7 -6 -5 -206 109 -233 132 -7 6 -26 16 -42 22 -17 5 -30 14 -30 20
0 5 -4 6 -10 3 -5 -3 -10 -1 -10 5 0 6 -4 9 -9 5 -5 -3 -12 -1 -15 4 -4 5 -37
26 -74 47 -37 20 -69 40 -72 44 -3 3 -20 12 -37 19 -18 8 -33 17 -33 22 0 5
-3 8 -7 7 -13 -3 -63 25 -63 34 0 5 -4 6 -10 3 -5 -3 -10 -2 -10 2 0 5 -22 19
-50 32 -27 13 -50 28 -50 32 0 5 -9 9 -19 9 -11 0 -23 5 -27 11 -3 6 -21 17
-38 25 -17 8 -64 35 -104 59 -41 25 -78 45 -82 45 -5 0 -18 10 -30 22 -11 12
-20 19 -20 15 0 -4 -18 4 -40 18 -22 14 -44 25 -49 25 -5 0 -11 4 -13 8 -1 5
-36 26 -75 47 -40 20 -73 42 -73 47 0 5 -4 7 -9 3 -5 -3 -16 2 -24 10 -9 8
-19 15 -23 15 -11 0 -169 93 -172 102 -2 4 -8 8 -14 8 -5 0 -64 32 -131 71
-157 92 -170 99 -242 140 -33 18 -61 37 -63 41 -2 4 -10 8 -17 8 -8 0 -20 6
-27 13 -8 6 -44 28 -81 47 -37 19 -67 38 -67 43 0 4 -6 7 -14 7 -8 0 -21 6
-28 13 -7 7 -15 14 -18 14 -19 4 -60 28 -60 36 0 6 -3 8 -6 4 -4 -3 -26 7 -50
23 -23 17 -47 30 -52 30 -5 0 -15 7 -22 15 -7 9 -15 13 -17 11 -3 -3 -29 11
-58 30 -30 19 -59 34 -65 34 -5 0 -10 5 -10 11 0 5 -4 8 -9 5 -4 -3 -16 3 -26
14 -10 11 -24 20 -31 20 -7 0 -19 7 -28 15 -8 9 -17 15 -18 13 -2 -1 -35 17
-75 40 -39 23 -76 42 -82 42 -5 0 -14 6 -18 14 -4 8 -12 16 -18 17 -23 4 -75
33 -75 41 0 5 -4 6 -10 3 -5 -3 -10 -2 -10 2 0 5 -15 14 -33 21 -18 7 -43 21
-55 32 -12 12 -22 18 -22 15 0 -4 -12 3 -26 14 -15 12 -30 21 -35 21 -8 0
-165 92 -184 108 -5 4 -13 9 -18 10 -18 3 -87 46 -87 54 0 5 -4 6 -10 3 -5 -3
-10 -1 -10 5 0 6 -4 9 -9 5 -5 -3 -12 -1 -16 5 -3 6 -21 17 -38 25 -42 20
-141 76 -147 85 -3 3 -21 14 -40 23 -19 10 -57 31 -85 48 -27 17 -58 33 -67
36 -10 3 -18 9 -18 14 0 5 -3 8 -7 7 -5 -2 -33 12 -63 31 -30 19 -80 48 -110
64 -30 16 -57 33 -60 37 -3 4 -15 10 -27 14 -13 4 -23 12 -23 17 0 6 -4 7 -10
4 -5 -3 -10 -1 -10 4 0 6 -4 11 -9 11 -13 0 -225 122 -229 132 -2 4 -8 6 -13
2 -5 -3 -9 0 -9 6 0 6 -4 9 -8 6 -5 -3 -18 3 -29 14 -12 10 -24 16 -27 13 -3
-4 -6 -1 -6 6 0 7 -4 10 -9 6 -5 -3 -12 -1 -16 5 -4 6 -27 22 -53 35 -26 14
-72 40 -103 58 -31 17 -98 56 -150 86 -52 30 -96 59 -97 63 -2 4 -8 6 -13 2
-5 -3 -9 0 -9 6 0 6 -5 8 -10 5 -6 -3 -13 1 -16 9 -3 9 -10 14 -14 11 -4 -3
-13 2 -20 10 -7 8 -19 15 -26 15 -8 0 -14 5 -14 11 0 5 -4 7 -10 4 -7 -4 -10
915 -10 2750 l0 2755 48 -25 c26 -14 56 -31 67 -38z m-1170 -5889 c14 -6 25
-15 25 -20 0 -4 3 -7 8 -6 6 3 81 -39 92 -51 3 -4 12 -7 20 -9 8 -2 22 -9 30
-16 8 -6 32 -21 53 -31 20 -11 37 -24 37 -29 0 -5 3 -6 7 -3 3 4 11 3 17 -2 6
-5 27 -18 46 -29 192 -108 256 -146 262 -156 4 -6 8 -7 8 -2 0 5 8 2 18 -6 9
-8 32 -20 50 -28 17 -7 32 -15 32 -19 0 -4 12 -12 28 -19 15 -6 45 -23 67 -37
22 -14 47 -28 55 -32 8 -4 17 -9 20 -12 3 -3 21 -14 40 -24 67 -34 145 -80
152 -91 5 -7 8 -7 8 -1 0 6 3 6 8 0 4 -6 18 -16 32 -23 14 -7 43 -23 65 -37
22 -13 47 -28 55 -32 53 -28 136 -78 141 -86 3 -5 8 -7 10 -6 4 3 59 -27 152
-83 26 -15 52 -28 57 -28 6 0 10 -4 10 -8 0 -5 16 -14 35 -22 19 -8 35 -17 35
-22 0 -4 4 -8 9 -8 13 0 205 -112 209 -122 2 -5 8 -6 13 -2 5 3 9 0 9 -5 0 -6
5 -11 10 -11 14 0 174 -92 178 -102 2 -5 8 -6 13 -2 5 3 9 0 9 -5 0 -6 7 -11
15 -11 8 0 15 -5 15 -11 0 -5 4 -8 8 -5 5 3 20 -5 33 -17 13 -12 25 -21 26
-19 5 4 68 -30 75 -42 4 -6 8 -7 8 -3 0 5 12 0 28 -10 56 -37 67 -44 85 -49 9
-4 17 -10 17 -14 0 -4 11 -11 24 -14 14 -3 31 -12 38 -19 14 -12 18 -15 98
-58 25 -13 47 -26 50 -29 3 -3 26 -16 53 -30 26 -13 47 -29 47 -34 0 -5 3 -7
6 -3 6 6 197 -102 202 -115 2 -5 7 -6 12 -3 4 3 13 -2 20 -10 7 -8 19 -15 26
-15 8 0 14 -3 14 -8 0 -4 15 -14 33 -21 17 -8 55 -28 82 -44 28 -16 66 -39 85
-50 19 -11 49 -28 65 -38 17 -10 53 -30 80 -44 28 -15 57 -33 66 -41 8 -8 21
-14 27 -14 7 0 12 -4 12 -10 0 -5 3 -9 8 -8 7 2 53 -21 62 -31 3 -3 31 -19 63
-36 31 -16 57 -33 57 -37 0 -4 3 -7 8 -6 4 2 25 -8 47 -22 22 -13 53 -30 70
-38 16 -7 32 -16 35 -20 3 -4 26 -18 53 -31 26 -13 47 -28 47 -33 0 -5 5 -6
10 -3 6 3 10 1 10 -6 0 -7 3 -9 6 -6 4 4 19 -2 34 -13 16 -11 32 -20 37 -20 5
0 18 -8 29 -17 11 -10 50 -34 87 -53 37 -19 67 -38 67 -42 0 -5 6 -8 14 -8 8
0 21 -7 30 -15 8 -9 17 -15 18 -13 5 4 123 -65 126 -74 2 -4 8 -6 13 -2 5 3
12 -2 15 -10 3 -9 15 -16 25 -16 10 0 19 -5 19 -11 0 -5 4 -8 8 -5 5 3 19 -4
30 -15 12 -11 22 -17 22 -13 0 4 8 1 18 -7 9 -8 26 -19 37 -25 97 -53 141 -78
145 -83 3 -3 19 -13 35 -22 59 -30 120 -64 125 -69 3 -3 22 -14 43 -25 20 -11
37 -23 37 -28 0 -4 4 -6 9 -2 5 3 12 1 16 -4 3 -6 26 -20 50 -32 25 -12 45
-27 45 -31 0 -5 4 -7 9 -3 5 3 15 0 23 -7 7 -7 29 -21 48 -30 37 -19 72 -39
80 -48 3 -3 30 -18 60 -34 30 -16 66 -37 80 -46 14 -10 57 -34 95 -55 39 -20
73 -42 77 -49 4 -6 8 -8 8 -3 0 7 47 -19 60 -33 3 -3 19 -12 35 -20 67 -34
220 -124 223 -132 2 -4 8 -6 13 -2 5 3 9 1 9 -4 0 -5 8 -12 18 -16 9 -3 49
-23 87 -45 39 -22 85 -47 103 -56 17 -10 32 -21 32 -26 0 -5 9 -9 19 -9 11 0
22 -4 26 -9 3 -6 26 -20 50 -32 25 -12 45 -27 45 -31 0 -5 4 -7 9 -4 5 3 14 0
20 -7 19 -23 112 -62 119 -50 4 6 32 23 62 39 30 15 57 31 60 35 3 3 29 19 58
35 29 16 61 34 70 39 68 41 142 83 167 95 16 8 52 30 80 48 27 17 55 32 61 32
7 0 14 4 16 8 3 9 127 81 176 103 17 7 32 17 32 21 0 5 7 8 15 8 8 0 15 4 15
8 0 4 12 13 28 19 36 16 125 66 160 92 16 11 32 18 36 14 3 -3 6 -1 6 6 0 7 4
10 9 7 5 -3 12 1 15 10 3 8 10 12 16 9 5 -3 10 -2 10 4 0 5 16 15 35 22 19 7
35 17 35 21 0 4 4 8 10 8 5 0 34 16 64 35 29 19 56 31 60 28 3 -4 6 0 6 7 0 7
3 11 6 7 3 -3 15 3 27 14 11 10 29 19 39 19 10 0 18 3 18 8 0 4 21 19 47 32
26 14 56 33 67 42 10 10 23 15 28 12 4 -3 8 -1 8 5 0 5 10 13 23 18 12 4 60
30 107 58 47 27 88 49 93 47 4 -1 7 2 7 6 0 9 37 29 54 30 5 0 12 4 15 9 8 13
85 58 93 56 3 -1 12 4 18 12 7 8 19 15 26 15 8 0 14 5 14 11 0 5 4 8 9 5 5 -4
11 -2 13 2 4 10 121 78 127 73 2 -1 7 2 10 7 3 5 29 21 56 36 52 28 57 31 141
83 29 17 55 29 58 26 3 -4 6 -1 6 5 0 7 6 12 14 12 7 0 19 7 26 15 7 8 16 12
21 9 5 -3 9 -1 9 5 0 5 10 13 22 17 12 3 28 13 36 20 7 8 20 14 28 14 8 0 14
4 14 9 0 5 8 11 18 14 9 3 38 19 64 34 86 52 183 107 188 108 3 0 19 10 36 22
17 12 34 20 38 16 3 -3 6 -1 6 6 0 7 5 9 10 6 6 -3 10 -1 10 4 0 6 7 11 15 11
8 0 15 4 15 9 0 5 8 11 18 15 21 7 100 52 118 67 8 6 14 8 14 5 0 -4 10 2 22
13 11 11 25 18 30 15 4 -3 8 -2 8 3 0 4 21 19 48 33 26 13 71 39 100 58 28 18
52 30 52 27 0 -3 10 3 22 14 11 11 25 18 30 15 4 -3 8 -1 8 4 0 12 76 53 84
45 3 -3 6 -1 6 5 0 7 7 12 15 12 8 0 15 4 15 8 0 10 50 37 63 34 4 -1 7 3 7 9
0 5 5 7 10 4 6 -3 10 -2 10 2 0 12 56 44 64 36 3 -3 6 -1 6 5 0 7 5 12 10 12
6 0 23 8 38 19 46 31 127 76 135 73 4 -1 7 2 7 7 0 5 10 13 23 16 12 4 36 18
54 31 17 13 34 24 38 24 3 0 23 11 45 25 22 14 40 23 40 20 0 -3 8 2 18 10 9
8 22 16 27 17 6 1 15 6 20 10 15 13 117 73 188 110 34 18 68 39 75 46 7 6 20
12 28 12 8 0 14 4 14 9 0 5 12 14 28 20 37 16 86 44 90 54 2 4 8 5 13 1 5 -3
9 -1 9 4 0 9 50 37 63 34 4 -1 7 3 7 9 0 5 5 7 10 4 6 -3 10 -3 10 2 0 9 62
47 73 45 4 -1 7 3 7 9 0 5 5 7 10 4 6 -3 10 -2 10 3 0 5 8 12 18 15 22 8 89
46 128 74 17 12 34 20 38 16 3 -3 6 -1 6 6 0 7 5 9 10 6 6 -3 10 -1 10 5 0 6
5 8 10 5 6 -3 10 -2 10 3 0 7 156 99 177 105 5 1 15 7 23 14 8 7 20 14 25 15
6 1 19 10 29 20 10 9 23 15 28 12 4 -3 8 0 8 6 0 6 5 8 10 5 6 -3 10 -2 10 4
0 5 9 13 20 16 11 4 44 22 73 41 28 19 57 34 64 34 7 0 13 5 13 10 0 6 4 10
10 10 9 0 69 34 140 79 14 8 27 16 30 16 9 1 55 28 60 35 3 4 19 13 35 22 50
25 100 53 105 58 3 3 19 12 35 20 17 8 32 18 35 21 9 10 55 33 63 31 4 -1 7 2
7 7 0 5 8 11 18 14 17 6 72 37 122 68 60 38 126 73 133 71 4 -1 7 2 7 8 0 5 5
10 11 10 6 0 22 9 36 20 14 11 32 20 39 20 12 0 14 -517 12 -3311 l-3 -3310
-60 -32 c-33 -18 -61 -35 -63 -39 -2 -5 -9 -8 -15 -8 -7 0 -36 -16 -65 -35
-28 -20 -52 -32 -52 -28 0 5 -4 3 -8 -3 -4 -6 -32 -24 -62 -40 -30 -16 -57
-32 -58 -37 -2 -4 -8 -5 -13 -1 -5 3 -9 1 -9 -3 0 -5 -17 -17 -37 -28 -21 -10
-46 -26 -55 -34 -10 -8 -18 -11 -18 -7 0 4 -7 0 -16 -8 -8 -9 -22 -16 -30 -16
-8 0 -14 -4 -14 -9 0 -5 -10 -13 -22 -17 -13 -4 -25 -9 -28 -13 -3 -3 -21 -14
-40 -23 -50 -25 -94 -52 -98 -60 -2 -5 -8 -8 -13 -8 -4 0 -43 -20 -85 -45 -41
-25 -79 -45 -84 -45 -4 0 -13 -7 -20 -15 -7 -8 -16 -13 -20 -10 -5 3 -10 2
-12 -3 -4 -11 -232 -142 -247 -142 -6 0 -11 -3 -11 -8 0 -4 -21 -18 -47 -32
-27 -14 -70 -40 -98 -57 -27 -18 -55 -33 -61 -33 -6 0 -17 -7 -24 -15 -7 -8
-16 -12 -21 -9 -5 3 -9 1 -9 -3 0 -5 -19 -19 -42 -31 -24 -12 -59 -32 -78 -44
-19 -11 -53 -31 -75 -42 -22 -12 -58 -33 -80 -47 -22 -13 -53 -31 -70 -39 -16
-8 -32 -18 -35 -21 -10 -11 -125 -74 -132 -71 -5 1 -8 -3 -8 -9 0 -5 -4 -8 -9
-5 -5 4 -11 2 -13 -2 -5 -13 -156 -101 -162 -95 -3 4 -6 2 -6 -4 0 -10 -49
-38 -62 -35 -5 1 -8 -2 -8 -6 0 -10 -50 -37 -62 -34 -5 1 -8 -2 -8 -7 0 -5 -8
-11 -17 -15 -10 -3 -36 -17 -58 -31 -22 -14 -48 -28 -57 -32 -10 -3 -18 -9
-18 -13 0 -6 -23 -16 -45 -19 -3 0 -15 -10 -27 -20 -11 -11 -25 -18 -30 -15
-4 3 -8 1 -8 -4 0 -9 -113 -74 -125 -72 -3 1 -20 -10 -36 -24 -17 -15 -35 -26
-40 -26 -6 0 -17 -7 -26 -15 -8 -8 -19 -13 -24 -10 -5 4 -9 2 -9 -4 0 -5 -9
-13 -20 -16 -11 -4 -44 -22 -73 -41 -29 -19 -62 -37 -74 -40 -13 -4 -23 -10
-23 -14 0 -5 -10 -12 -22 -16 -13 -4 -25 -10 -28 -14 -7 -10 -170 -100 -181
-100 -5 0 -9 -4 -9 -8 0 -9 -71 -47 -82 -44 -5 1 -8 -2 -8 -8 0 -5 -4 -10 -8
-10 -5 0 -50 -25 -100 -55 -50 -30 -94 -55 -97 -55 -4 0 -13 -7 -22 -15 -8 -8
-19 -13 -24 -10 -5 4 -9 2 -9 -2 0 -5 -21 -20 -47 -33 -27 -14 -51 -29 -55
-35 -4 -5 -8 -6 -8 -2 0 5 -7 1 -16 -7 -8 -9 -22 -16 -30 -16 -8 0 -14 -4 -14
-9 0 -5 -10 -13 -22 -17 -13 -3 -31 -13 -40 -22 -10 -8 -18 -11 -18 -6 0 5 -4
4 -8 -1 -8 -13 -105 -70 -111 -66 -2 1 -7 -1 -10 -6 -8 -11 -59 -42 -93 -56
-16 -6 -28 -15 -28 -20 0 -4 -4 -5 -10 -2 -5 3 -10 2 -10 -3 0 -5 -21 -19 -47
-32 -27 -13 -55 -29 -63 -36 -8 -6 -40 -25 -70 -41 -30 -17 -83 -47 -117 -67
-34 -20 -66 -36 -72 -36 -6 0 -11 -5 -11 -11 0 -5 -4 -7 -10 -4 -5 3 -10 2
-10 -4 0 -6 -11 -13 -25 -17 -14 -3 -25 -10 -25 -14 0 -5 -8 -11 -19 -15 -10
-3 -72 -37 -137 -76 -65 -39 -123 -71 -129 -72 -5 -1 -18 -10 -29 -19 -10 -10
-23 -15 -28 -12 -4 3 -8 1 -8 -5 0 -5 -10 -13 -22 -17 -13 -4 -25 -10 -28 -13
-9 -12 -105 -66 -112 -63 -5 1 -8 -3 -8 -9 0 -5 -4 -7 -10 -4 -5 3 -10 2 -10
-3 0 -8 -50 -36 -59 -32 -2 1 -7 -2 -10 -7 -7 -11 -163 -102 -174 -102 -4 0
-15 -7 -23 -16 -9 -8 -22 -15 -30 -15 -8 0 -14 -4 -14 -10 0 -5 -4 -10 -10
-10 -5 0 -34 -16 -64 -35 -29 -19 -56 -31 -60 -28 -3 4 -6 2 -6 -4 0 -6 -12
-16 -27 -22 -30 -12 -65 -32 -73 -43 -3 -3 -12 -8 -20 -10 -8 -2 -19 -7 -25
-11 -32 -25 -175 -104 -180 -99 -3 3 -5 0 -5 -7 0 -7 -4 -9 -10 -6 -5 3 -10 2
-10 -2 0 -5 -26 -22 -57 -38 -32 -16 -60 -31 -63 -35 -9 -11 -80 -52 -80 -45
0 3 -10 -3 -22 -15 -12 -11 -26 -20 -31 -20 -5 0 -21 -9 -37 -20 -15 -11 -30
-17 -34 -13 -3 3 -6 1 -6 -5 0 -7 -7 -12 -15 -12 -8 0 -15 -3 -15 -8 0 -4 -17
-15 -37 -25 -21 -9 -46 -23 -56 -30 -14 -10 -27 -6 -82 23 -36 19 -65 39 -65
43 0 5 -4 6 -9 2 -5 -3 -13 0 -17 6 -3 6 -26 20 -50 31 -24 10 -44 23 -44 28
0 6 -3 9 -7 8 -10 -3 -147 73 -151 84 -2 4 -7 6 -12 3 -4 -3 -13 2 -20 10 -7
8 -16 15 -20 15 -5 0 -54 27 -110 60 -56 33 -106 60 -111 60 -5 0 -9 3 -9 8 0
4 -18 16 -40 26 -22 11 -40 23 -40 28 0 5 -4 7 -9 3 -5 -3 -15 1 -23 8 -7 7
-17 15 -23 17 -25 7 -55 24 -55 30 0 3 -16 12 -35 19 -19 7 -35 17 -35 22 0 5
-7 9 -15 9 -8 0 -15 5 -15 12 0 6 -3 8 -6 5 -4 -4 -19 2 -33 11 -14 10 -47 29
-73 43 -27 13 -48 27 -48 30 0 3 -16 11 -35 19 -19 8 -35 17 -35 22 0 4 -5 8
-10 8 -9 0 -35 14 -138 75 -10 6 -57 32 -105 59 -48 27 -87 54 -87 58 0 5 -4
7 -9 3 -5 -3 -15 1 -23 8 -7 7 -24 18 -38 24 -14 7 -52 28 -85 48 -33 19 -78
45 -100 56 -22 12 -48 28 -57 37 -10 8 -18 11 -18 6 0 -5 -4 -4 -8 1 -4 6 -28
21 -54 35 -27 13 -48 28 -48 33 0 4 -4 6 -9 2 -5 -3 -12 -1 -15 4 -3 5 -29 21
-58 36 -29 15 -60 33 -68 39 -8 7 -41 26 -72 42 -32 16 -58 32 -58 37 0 4 -7
7 -15 7 -8 0 -15 5 -15 11 0 5 -4 7 -10 4 -5 -3 -10 -1 -10 5 0 6 -4 9 -8 6
-5 -3 -19 4 -30 15 -12 11 -22 17 -22 13 0 -4 -8 0 -17 8 -10 9 -28 19 -40 22
-13 4 -23 11 -23 15 0 4 -16 13 -35 21 -19 8 -35 16 -35 19 0 4 -15 12 -32 20
-18 8 -51 26 -73 40 -22 14 -53 33 -70 41 -16 8 -32 17 -35 20 -3 3 -25 16
-50 29 -25 14 -48 29 -52 35 -4 6 -8 8 -8 4 0 -4 -24 7 -52 25 -29 18 -65 39
-80 46 -16 8 -28 18 -28 23 0 5 -4 7 -9 3 -5 -3 -16 2 -24 10 -9 8 -20 15 -25
15 -5 0 -15 7 -22 15 -7 9 -15 13 -18 11 -3 -3 -17 3 -31 13 -14 10 -57 36
-96 56 -38 21 -72 41 -75 44 -3 3 -30 19 -60 35 -30 16 -62 34 -70 40 -8 6
-24 16 -35 22 -56 30 -91 50 -95 54 -3 3 -26 16 -52 30 -27 13 -48 28 -48 33
0 4 -4 6 -9 3 -5 -3 -14 1 -21 9 -7 8 -17 15 -22 15 -6 0 -55 27 -110 60 -54
33 -101 60 -104 60 -2 0 -34 18 -70 40 -36 22 -70 40 -74 40 -5 0 -15 6 -22
13 -7 6 -29 21 -48 31 -33 18 -213 122 -330 191 -30 18 -75 44 -100 57 -85 48
-125 72 -128 80 -2 5 -8 6 -13 2 -5 -3 -9 0 -9 6 0 6 -4 9 -9 6 -5 -3 -12 1
-15 9 -3 8 -9 14 -13 13 -14 -4 -83 34 -83 45 0 6 -3 7 -7 4 -3 -4 -21 4 -38
18 -18 13 -35 21 -39 18 -3 -4 -6 0 -6 7 0 7 -3 11 -6 7 -3 -3 -42 16 -86 44
-44 27 -84 49 -89 49 -5 0 -9 5 -9 10 0 6 -3 9 -7 8 -10 -3 -87 43 -91 54 -2
5 -8 6 -13 2 -5 -3 -9 0 -9 5 0 6 -5 11 -12 11 -15 0 -202 109 -206 121 -2 5
-8 7 -13 3 -5 -3 -9 0 -9 6 0 6 -4 9 -9 5 -5 -3 -15 1 -23 8 -7 7 -24 18 -38
25 -14 7 -43 23 -65 37 -22 13 -48 27 -57 31 -10 3 -18 11 -18 17 0 6 -3 8 -6
4 -4 -3 -26 7 -50 23 -23 17 -46 30 -49 30 -8 0 -148 82 -155 90 -3 3 -20 12
-37 19 -18 8 -33 18 -33 23 0 5 -4 6 -10 3 -5 -3 -10 -3 -10 2 0 4 -23 19 -50
32 -28 14 -50 28 -50 32 0 4 -16 13 -35 19 -19 6 -35 16 -35 22 0 6 -3 8 -6 5
-4 -4 -19 2 -34 13 -16 11 -33 20 -39 20 -6 0 -11 5 -11 10 0 6 -6 10 -14 10
-8 0 -22 8 -32 18 -10 9 -19 16 -21 15 -7 -6 -73 31 -74 41 -6 43 -3 6616 3
6616 4 0 19 -5 33 -12z"/>
</g>
</svg>
